<svg xmlns="http://www.w3.org/2000/svg" xmlns:xlink="http://www.w3.org/1999/xlink" width="500" zoomAndPan="magnify" viewBox="0 0 375 374.999991" height="500" preserveAspectRatio="xMidYMid meet" version="1.0"><defs><g/><clipPath id="0f603d144a"><path d="M 47.730469 98 L 211 98 L 211 261.847656 L 47.730469 261.847656 Z M 47.730469 98 " clip-rule="nonzero"/></clipPath><clipPath id="321124baa1"><path d="M 164 19.597656 L 327.480469 19.597656 L 327.480469 261.847656 L 164 261.847656 Z M 164 19.597656 " clip-rule="nonzero"/></clipPath><clipPath id="cf722c2115"><path d="M 47.730469 243 L 183 243 L 183 261.847656 L 47.730469 261.847656 Z M 47.730469 243 " clip-rule="nonzero"/></clipPath><clipPath id="8ec0ee0148"><path d="M 164 55 L 327.480469 55 L 327.480469 261.847656 L 164 261.847656 Z M 164 55 " clip-rule="nonzero"/></clipPath><clipPath id="8a7e3938cd"><path d="M 164 19.597656 L 188 19.597656 L 188 59 L 164 59 Z M 164 19.597656 " clip-rule="nonzero"/></clipPath></defs><g clip-path="url(#0f603d144a)"><path fill="#38b6ff" d="M 187.601562 98.164062 L 142.261719 98.164062 L 47.730469 261.710938 L 183.738281 261.710938 L 210.273438 215.808594 L 191.460938 183.28125 L 187.601562 176.597656 L 183.738281 183.28125 L 161.066406 222.492188 L 115.738281 222.492188 Z M 187.601562 98.164062 " fill-opacity="1" fill-rule="evenodd"/></g><g clip-path="url(#321124baa1)"><path fill="#83858c" d="M 327.480469 261.710938 L 257.539062 140.71875 L 187.601562 19.730469 L 164.933594 58.949219 L 175.367188 76.996094 L 187.601562 98.164062 L 200.042969 119.679688 L 259.46875 222.492188 L 271.703125 243.660156 L 282.140625 261.710938 Z M 327.480469 261.710938 " fill-opacity="1" fill-rule="evenodd"/></g><path fill="#2493d4" d="M 187.601562 98.164062 L 152.394531 116.738281 L 79.03125 243.660156 L 115.738281 222.492188 Z M 187.601562 98.164062 " fill-opacity="1" fill-rule="evenodd"/><g clip-path="url(#cf722c2115)"><path fill="#2493d4" d="M 79.03125 243.660156 L 47.730469 261.710938 L 182.359375 261.710938 L 172.558594 243.660156 Z M 79.03125 243.660156 " fill-opacity="1" fill-rule="evenodd"/></g><path fill="#2493d4" d="M 161.066406 222.492188 L 172.558594 243.660156 L 184.339844 222.492188 L 188.988281 214.144531 L 187.601562 176.597656 Z M 161.066406 222.492188 " fill-opacity="1" fill-rule="evenodd"/><g clip-path="url(#8ec0ee0148)"><path fill="#68696e" d="M 200.042969 119.679688 L 259.46875 222.492188 L 271.703125 243.660156 L 282.140625 261.710938 L 327.480469 261.710938 L 296.175781 243.660156 L 187.601562 55.828125 L 164.933594 58.949219 L 175.367188 76.996094 L 187.601562 98.164062 Z M 200.042969 119.679688 " fill-opacity="1" fill-rule="evenodd"/></g><g clip-path="url(#8a7e3938cd)"><path fill="#8b8d93" d="M 187.601562 55.828125 L 187.601562 19.730469 L 164.933594 58.949219 Z M 187.601562 55.828125 " fill-opacity="1" fill-rule="evenodd"/></g><g fill="#38b6ff" fill-opacity="1"><g transform="translate(9.773042, 339.516218)"><g><path d="M 11.96875 0.15625 C 11.101562 0.0507812 9.429688 0 6.953125 0 L 4.796875 0 L 4.796875 -36.109375 C 5.953125 -36.035156 7.222656 -36 8.609375 -36 C 9.992188 -36 10.976562 -36.070312 11.5625 -36.21875 L 20.65625 -20.765625 L 29.390625 -36.21875 C 29.972656 -36.070312 31.078125 -36 32.703125 -36 C 34.328125 -36 35.71875 -36.035156 36.875 -36.109375 L 36.875 0 L 34.703125 0 C 32.234375 0 30.5625 0.0507812 29.6875 0.15625 L 29.6875 -24.09375 L 20.84375 -8.25 L 11.96875 -22.8125 Z M 11.96875 0.15625 "/></g></g></g><g fill="#38b6ff" fill-opacity="1"><g transform="translate(65.230386, 339.516218)"><g><path d="M 22.765625 -6.5 C 23.878906 -6.5 24.65625 -6.609375 25.09375 -6.828125 L 25.203125 -6.796875 L 24.9375 0 L 4.65625 0 L 4.65625 -36.1875 C 5.144531 -36.15625 5.6875 -36.128906 6.28125 -36.109375 L 8.171875 -36.0625 C 9.429688 -36.019531 10.804688 -36 12.296875 -36 C 16.421875 -36 20.503906 -36.070312 24.546875 -36.21875 C 24.347656 -34.632812 24.25 -32.515625 24.25 -29.859375 C 24.25 -29.566406 24.269531 -29.347656 24.3125 -29.203125 L 24.25 -29.125 C 23.3125 -29.394531 21.976562 -29.53125 20.25 -29.53125 L 11.71875 -29.53125 L 11.71875 -22.625 L 18.140625 -22.625 C 20.117188 -22.625 21.304688 -22.679688 21.703125 -22.796875 L 21.796875 -16.109375 C 20.921875 -16.191406 19.800781 -16.234375 18.4375 -16.234375 L 11.71875 -16.234375 L 11.71875 -6.5 Z M 22.765625 -6.5 "/></g></g></g><g fill="#38b6ff" fill-opacity="1"><g transform="translate(106.803244, 339.516218)"><g><path d="M 4.90625 0 C 5.007812 -0.613281 5.0625 -1.28125 5.0625 -2 L 5.0625 -36 L 10.46875 -36 L 24.828125 -13.421875 L 24.828125 -34.15625 C 24.828125 -35.15625 24.734375 -35.769531 24.546875 -36 L 31.859375 -36 C 31.765625 -35.28125 31.71875 -34.488281 31.71875 -33.625 L 31.71875 0 L 26.09375 0 L 11.96875 -21.6875 L 11.96875 0 Z M 4.90625 0 "/></g></g></g><g fill="#38b6ff" fill-opacity="1"><g transform="translate(157.388838, 339.516218)"><g><path d="M 22.765625 -6.5 C 23.878906 -6.5 24.65625 -6.609375 25.09375 -6.828125 L 25.203125 -6.796875 L 24.9375 0 L 4.65625 0 L 4.65625 -36.1875 C 5.144531 -36.15625 5.6875 -36.128906 6.28125 -36.109375 L 8.171875 -36.0625 C 9.429688 -36.019531 10.804688 -36 12.296875 -36 C 16.421875 -36 20.503906 -36.070312 24.546875 -36.21875 C 24.347656 -34.632812 24.25 -32.515625 24.25 -29.859375 C 24.25 -29.566406 24.269531 -29.347656 24.3125 -29.203125 L 24.25 -29.125 C 23.3125 -29.394531 21.976562 -29.53125 20.25 -29.53125 L 11.71875 -29.53125 L 11.71875 -22.625 L 18.140625 -22.625 C 20.117188 -22.625 21.304688 -22.679688 21.703125 -22.796875 L 21.796875 -16.109375 C 20.921875 -16.191406 19.800781 -16.234375 18.4375 -16.234375 L 11.71875 -16.234375 L 11.71875 -6.5 Z M 22.765625 -6.5 "/></g></g></g><g fill="#38b6ff" fill-opacity="1"><g transform="translate(198.961696, 339.516218)"><g><path d="M 9.9375 0 C 7.28125 0 5.519531 0.0507812 4.65625 0.15625 L 4.65625 -36.171875 C 5.09375 -36.054688 5.988281 -36 7.34375 -36 C 8.707031 -36 10.289062 -36.035156 12.09375 -36.109375 L 12.09375 -6.5 L 17.703125 -6.5 C 19.328125 -6.5 20.625 -6.550781 21.59375 -6.65625 C 21.46875 -2.4375 21.40625 -0.242188 21.40625 -0.078125 L 21.40625 0.1875 C 19.644531 0.0625 16.675781 0 12.5 0 Z M 9.9375 0 "/></g></g></g><g fill="#38b6ff" fill-opacity="1"><g transform="translate(235.906404, 339.516218)"><g><path d="M 7.28125 0.21875 C 5.726562 0.0703125 3.914062 0 1.84375 0 L -0.296875 0 L 11.484375 -33 C 12.003906 -34.476562 12.265625 -35.335938 12.265625 -35.578125 C 12.265625 -35.828125 12.253906 -35.976562 12.234375 -36.03125 L 12.265625 -36.078125 C 13.429688 -36.023438 14.675781 -36 16 -36 C 17.082031 -36 18.378906 -36.019531 19.890625 -36.0625 L 19.921875 -36 C 19.890625 -35.925781 19.875 -35.828125 19.875 -35.703125 C 19.875 -35.359375 20.144531 -34.445312 20.6875 -32.96875 L 32.703125 0.078125 C 32.335938 0.0546875 31.910156 0.046875 31.421875 0.046875 C 31.421875 0.046875 30.953125 0.03125 30.015625 0 C 29.566406 0 29.160156 0 28.796875 0 L 24.609375 0 L 22.0625 -7.796875 L 9.828125 -7.796875 Z M 19.953125 -14.296875 L 15.859375 -26.875 L 11.890625 -14.296875 Z M 19.953125 -14.296875 "/></g></g></g><g fill="#38b6ff" fill-opacity="1"><g transform="translate(282.107435, 339.516218)"><g><path d="M 25.171875 -36.140625 C 26.296875 -36.046875 27.226562 -36 27.96875 -36 L 30.203125 -36 C 30.960938 -36 31.757812 -36.070312 32.59375 -36.21875 L 32.59375 -13.828125 C 32.59375 -9.390625 31.25 -5.828125 28.5625 -3.140625 C 26.007812 -0.597656 22.8125 0.671875 18.96875 0.671875 C 14.769531 0.671875 11.367188 -0.414062 8.765625 -2.59375 C 5.859375 -5.050781 4.40625 -8.585938 4.40625 -13.203125 L 4.40625 -36.140625 C 5.90625 -36.046875 7.316406 -36 8.640625 -36 C 9.972656 -36 11.070312 -36.070312 11.9375 -36.21875 L 11.9375 -12.859375 C 11.9375 -10.585938 12.628906 -8.816406 14.015625 -7.546875 C 15.316406 -6.390625 16.941406 -5.8125 18.890625 -5.8125 C 21.773438 -5.8125 23.695312 -7.296875 24.65625 -10.265625 C 25 -11.328125 25.171875 -12.644531 25.171875 -14.21875 Z M 25.171875 -36.140625 "/></g></g></g><g fill="#38b6ff" fill-opacity="1"><g transform="translate(332.936617, 339.516218)"><g><path d="M 26.390625 -34 L 25.875 -26.046875 L 25.6875 -25.984375 C 24.351562 -27.984375 22.078125 -29.285156 18.859375 -29.890625 C 17.847656 -30.085938 16.878906 -30.1875 15.953125 -30.1875 C 15.023438 -30.1875 14.234375 -30.101562 13.578125 -29.9375 C 12.921875 -29.769531 12.359375 -29.535156 11.890625 -29.234375 C 10.890625 -28.585938 10.390625 -27.738281 10.390625 -26.6875 C 10.390625 -25.320312 10.820312 -24.296875 11.6875 -23.609375 C 12.769531 -22.773438 14.566406 -22.191406 17.078125 -21.859375 C 19.585938 -21.523438 21.597656 -21.066406 23.109375 -20.484375 C 24.628906 -19.910156 25.878906 -19.179688 26.859375 -18.296875 C 28.691406 -16.640625 29.609375 -14.296875 29.609375 -11.265625 C 29.609375 -7.296875 28.113281 -4.234375 25.125 -2.078125 C 22.5625 -0.242188 19.328125 0.671875 15.421875 0.671875 C 12.285156 0.671875 9.1875 0.078125 6.125 -1.109375 C 5.113281 -1.503906 4.226562 -1.960938 3.46875 -2.484375 L 3.765625 -11.53125 L 3.875 -11.609375 C 6.113281 -7.742188 9.785156 -5.8125 14.890625 -5.8125 C 18.515625 -5.8125 20.914062 -6.691406 22.09375 -8.453125 C 22.488281 -9.046875 22.6875 -9.707031 22.6875 -10.4375 C 22.6875 -11.164062 22.566406 -11.769531 22.328125 -12.25 C 22.097656 -12.726562 21.710938 -13.140625 21.171875 -13.484375 C 20.117188 -14.171875 18.359375 -14.628906 15.890625 -14.859375 C 13.421875 -15.097656 11.398438 -15.539062 9.828125 -16.1875 C 8.253906 -16.832031 7 -17.632812 6.0625 -18.59375 C 4.363281 -20.320312 3.515625 -22.738281 3.515625 -25.84375 C 3.515625 -29.0625 4.644531 -31.660156 6.90625 -33.640625 C 9.195312 -35.660156 12.285156 -36.671875 16.171875 -36.671875 C 20.054688 -36.671875 23.460938 -35.78125 26.390625 -34 Z M 26.390625 -34 "/></g></g></g></svg>